<svg xmlns="http://www.w3.org/2000/svg" width="320.067" height="59.863" viewBox="0 0 1342 251">
  <defs>
    <style>
      .cls-1 {
        fill: #fff;
        fill-rule: evenodd;
      }
    </style>
  </defs>
  <path id="Siiimple" class="cls-1" d="M317.943,23.121c-34.426,0-57.151,19.126-57.151,47.7,0,22.726,13.5,37.8,43.2,43.426l25.2,4.95c17.326,2.925,22.5,10.8,22.5,18.9,0,12.825-11.25,20.7-29.926,20.7-22.95,0-37.8-11.25-40.5-29.25H254.491c2.7,32.851,28.126,53.1,65.7,53.1,35.551,0,59.177-19.125,59.177-47.7,0-24.526-16.651-36.226-45.9-42.076l-19.35-3.825c-15.975-3.15-24.751-8.775-24.751-20.475,0-13.95,11.926-22.276,30.376-22.276,20.926,0,31.051,10.125,33.526,25.426h26.776C376.445,34.821,344.944,23.121,317.943,23.121Zm103.051,27c9,0,16.2-6.75,16.2-15.525a16.2,16.2,0,0,0-32.4,0C404.794,43.371,411.994,50.122,420.994,50.122ZM408.169,73.072V179.5h25.876V73.072H408.169Zm72.674-22.951c9,0,16.2-6.75,16.2-15.525a16.2,16.2,0,0,0-32.4,0C464.642,43.371,471.842,50.122,480.843,50.122ZM468.017,73.072V179.5h25.876V73.072H468.017Zm72.674-22.951c9,0,16.2-6.75,16.2-15.525a16.2,16.2,0,0,0-32.4,0C524.49,43.371,531.69,50.122,540.691,50.122ZM527.865,73.072V179.5h25.876V73.072H527.865ZM715.292,69.7c-17.551,0-28.8,5.4-40.051,16.2-8.326-10.35-20.7-16.2-34.651-16.2-13.5,0-21.376,4.05-28.576,10.8V73.072h-26.1V179.5h26.1v-72c7.2-9.9,15.525-14.175,23.175-14.175,16.2,0,25.651,10.35,25.651,29.025V179.5h25.876V120.773a58.989,58.989,0,0,0-1.35-12.825c7.425-10.8,16.425-14.625,24.526-14.625,16.425,0,25.65,10.35,25.65,29.025V179.5h26.1V120.773C761.643,89.948,741.392,69.7,715.292,69.7Zm133.87,0.9c-12.825,0-23.85,3.6-32.4,9.9V73.072h-26.1V232.826h26.1V172.075c8.551,6.3,19.576,9.9,32.4,9.9,29.7,0,53.552-24.751,53.552-55.576C902.714,95.348,878.863,70.6,849.162,70.6Zm-3.825,88.877c-11.025,0-21.151-4.05-28.576-14.85V107.948c7.425-10.8,17.551-14.85,28.576-14.85,18.451,0,31.5,15.525,31.5,33.3C876.838,143.949,863.788,159.474,845.337,159.474ZM953.112,19.746h-26.1V179.5h26.1V19.746ZM1086.09,124.6c-0.23-32.851-22.5-54.9-52.65-54.9-33.3,0-56.029,24.076-56.029,56.7,0,31.5,22.729,56.476,56.7,56.476,24.3,0,43.88-13.275,49.95-32.851h-27.67c-3.83,6.525-11.25,9.9-21.6,9.9-19.35,0-29.7-11.7-31.95-26.775h82.57A45.29,45.29,0,0,0,1086.09,124.6Zm-52.65-32.851c15.07,0,24.52,9.675,26.32,25.425h-56.47C1006.21,102.548,1016.11,91.748,1033.44,91.748Z"/>
</svg>
